<svg xmlns="http://www.w3.org/2000/svg" xmlns:xlink="http://www.w3.org/1999/xlink" viewBox="0 0 30 30" fill="#C0CADC">
  <path d="M14.019531 0C12.455847 0 11.156556 0.80685928 10.310547 1.8554688C9.4645372 2.9040782 9 4.1944542 9 5.4433594 A 1.0001 1.0001 0 1 0 11 5.4433594C11 4.7242645 11.317446 3.7927187 11.867188 3.1113281C12.416927 2.4299375 13.128216 2 14.019531 2C15.321147 2 15.99974 2.4978137 16.453125 3.0019531C16.90651 3.5060925 17.042969 3.9589844 17.042969 3.9589844 A 1.0005837 1.0005837 0 1 0 18.957031 3.375C18.957031 3.375 18.685318 2.4934231 17.939453 1.6640625C17.193588 0.83470192 15.882916 0 14.019531 0 z M 20.824219 6.0507812C20.688219 6.0277813 20.551969 6.0314531 20.417969 6.0644531L9.4648438 8.765625C10.207844 9.399625 10.714047 10.322875 10.873047 11.421875C11.108047 13.047875 11.425484 15.471125 11.646484 17.203125C11.684484 17.497125 11.870516 17.653703 11.978516 17.720703C12.087516 17.787703 12.311703 17.886109 12.595703 17.787109L24.886719 13.453125C25.457719 13.252125 25.765078 12.636547 25.580078 12.060547C25.231078 10.972547 24.710734 9.3494687 24.552734 8.8554688C23.779734 6.4514688 22.167219 6.2747813 20.824219 6.0507812 z M 7.1738281 9.875C6.7435625 9.8473438 6.316625 9.9834531 5.984375 10.251953C5.629375 10.686953 5.3892656 11.214922 5.3222656 11.794922L4.0078125 23.148438C3.9578125 23.579438 4.1909375 23.993828 4.5859375 24.173828L10.585938 26.910156C10.716938 26.970156 10.858 27 11 27C11.114 27 11.227938 26.980406 11.335938 26.941406L25.335938 21.941406C25.765937 21.788406 26.036141 21.363203 25.994141 20.908203C25.978141 20.731203 25.785734 18.636281 25.552734 16.238281C25.510734 15.803281 25.070203 15.523969 24.658203 15.667969L20.310547 17.195312C20.280547 17.666313 19.734687 18.203156 19.054688 18.410156C18.433688 18.599156 17.941031 18.436406 17.832031 18.066406L13.257812 19.673828C12.962813 19.777828 12.657516 19.828125 12.353516 19.828125C11.663516 19.828125 10.982219 19.564734 10.449219 19.052734C9.9852187 18.606734 9.7294375 17.985656 9.6484375 17.347656C9.4294375 15.634656 9.1245313 13.289031 8.8945312 11.707031C8.7205313 10.504031 8.0095625 10.095031 7.6015625 9.9570312C7.4610625 9.9105313 7.31725 9.8842188 7.1738281 9.875 z" fill="#C0CADC" />
</svg>