<svg xmlns="http://www.w3.org/2000/svg" xmlns:xlink="http://www.w3.org/1999/xlink" viewBox="0 0 128 128"><path d="M114.9,33.5C114.9,33.4,114.9,33.4,114.9,33.5c0-0.2-0.1-0.3-0.1-0.5c-0.3-0.8-1-1.5-1.7-1.8c0,0-0.1,0-0.1-0.1l-48-17 c0,0,0,0-0.1,0c-0.1,0-0.3-0.1-0.4-0.1c0,0-0.1,0-0.1,0c-0.1,0-0.3,0-0.4,0c-0.1,0-0.1,0-0.2,0c-0.1,0-0.2,0-0.3,0 c-0.2,0-0.4,0.1-0.5,0.1l-48,17c-1.2,0.4-2,1.6-2,2.8v60c0,1.3,0.8,2.4,2,2.8l48,17c0.3,0.1,0.7,0.2,1,0.2c0.2,0,0.3,0,0.5,0 c0,0,0.1,0,0.1,0c0.1,0,0.2-0.1,0.3-0.1c0,0,0,0,0,0l48-17c1.2-0.4,2-1.6,2-2.8V34c0-0.1,0-0.1,0-0.2C115,33.7,115,33.6,114.9,33.5z M19,36.1l45-15.9l13,4.6L36,39.3c-1.2,0.4-2,1.6-2,2.8v10.8c0,1.3,0.8,2.4,2,2.8l6.3,2.3c1.3,0.5,2.7-0.5,2.7-1.9v-10 c0-1.3,0.8-2.4,2-2.8l41.6-14.4L103,34L63,48.2c0,0,0,0-0.1,0C61.8,48.6,61,49.7,61,51v55.8L19,91.9V36.1z M109,91.9l-42,14.9V53.1 l42-14.9V91.9z"/></svg>