<svg xmlns="http://www.w3.org/2000/svg" xmlns:xlink="http://www.w3.org/1999/xlink" viewBox="0 0 24 24" fill="#393D46">
  <path d="M7.6582031 2C6.8615365 2 6.1344998 2.4791595 5.8203125 3.2109375L3.3398438 9L2.0019531 9C1.6889531 9 1.3950781 9.1455313 1.2050781 9.3945312C1.0170781 9.6425313 0.95315625 9.964625 1.0351562 10.265625L3.5957031 19.53125C3.8347031 20.39525 4.6274375 21 5.5234375 21L18.476562 21C19.372562 21 20.164344 20.396203 20.402344 19.533203L22.962891 10.267578C23.045891 9.9665781 22.982922 9.6425312 22.794922 9.3945312C22.604922 9.1455313 22.310047 9 21.998047 9L20.660156 9L18.177734 3.2128906L18.179688 3.2128906C17.865994 2.4777169 17.13651 2 16.339844 2L7.6582031 2 z M 7.6582031 4L16.339844 4L18.482422 9L5.5175781 9L7.6582031 4 z M 3.3144531 11L20.685547 11L18.474609 19L5.5234375 19L3.3144531 11 z M 8 13C7.448 13 7 13.448 7 14L7 16C7 16.552 7.448 17 8 17C8.552 17 9 16.552 9 16L9 14C9 13.448 8.552 13 8 13 z M 12 13C11.448 13 11 13.448 11 14L11 16C11 16.552 11.448 17 12 17C12.552 17 13 16.552 13 16L13 14C13 13.448 12.552 13 12 13 z M 16 13C15.448 13 15 13.448 15 14L15 16C15 16.552 15.448 17 16 17C16.552 17 17 16.552 17 16L17 14C17 13.448 16.552 13 16 13 z" fill="#393D46" />
</svg>