<svg xmlns="http://www.w3.org/2000/svg" xmlns:xlink="http://www.w3.org/1999/xlink" viewBox="0 0 16 16"><path d="M3.5 2C1.574219 2 0 3.574219 0 5.5C0 7.425781 1.574219 9 3.5 9C5.425781 9 7 7.425781 7 5.5C7 3.574219 5.425781 2 3.5 2 Z M 6 2L6 2.007813C6.378906 2.273438 6.699219 2.609375 6.945313 3L8.5 3C8.78125 3 9 3.21875 9 3.5L9 11L4.90625 11C4.699219 10.421875 4.148438 10 3.5 10C2.851563 10 2.300781 10.421875 2.09375 11L1.5 11C1.21875 11 1 10.78125 1 10.5L1 8.9375L0.988281 8.9375C0.605469 8.691406 0.269531 8.375 0.0117188 8L0 8L0 10.5C0 11.324219 0.675781 12 1.5 12L2.09375 12C2.300781 12.578125 2.851563 13 3.5 13C4.148438 13 4.699219 12.578125 4.90625 12L11.066406 12C11.273438 12.578125 11.824219 13 12.472656 13C13.121094 13 13.671875 12.578125 13.878906 12L14.5 12C15.320313 12 16 11.324219 16 10.5L16 8.804688C16 8.507813 15.910156 8.214844 15.746094 7.96875L14.1875 5.667969C13.90625 5.25 13.4375 5 12.9375 5L10 5L10 3.5C10 2.675781 9.324219 2 8.5 2 Z M 3.5 3C4.886719 3 6 4.113281 6 5.5C6 6.886719 4.886719 8 3.5 8C2.113281 8 1 6.886719 1 5.5C1 4.113281 2.113281 3 3.5 3 Z M 3 4L3 6L5 6L5 5L4 5L4 4 Z M 10 6L12.9375 6C13.105469 6 13.261719 6.085938 13.355469 6.222656L13.355469 6.226563L14.914063 8.527344C14.96875 8.609375 15 8.703125 15 8.804688L15 10.5C15 10.78125 14.78125 11 14.5 11L13.878906 11C13.671875 10.421875 13.121094 10 12.472656 10C11.824219 10 11.273438 10.421875 11.066406 11L10 11 Z M 3.5 11C3.78125 11 4 11.21875 4 11.5C4 11.78125 3.78125 12 3.5 12C3.21875 12 3 11.78125 3 11.5C3 11.21875 3.21875 11 3.5 11 Z M 12.472656 11C12.753906 11 12.972656 11.21875 12.972656 11.5C12.972656 11.78125 12.753906 12 12.472656 12C12.191406 12 11.972656 11.78125 11.972656 11.5C11.972656 11.21875 12.191406 11 12.472656 11Z"/></svg>