<svg xmlns="http://www.w3.org/2000/svg" xmlns:xlink="http://www.w3.org/1999/xlink" viewBox="0 0 30 30" fill="#C0CADC">
  <path d="M12 5C11 5 8.034 9.973 6 15C6 15 8.486 18 15 18C17.498 18 19.398828 17.557672 20.798828 17.013672C20.645828 16.727672 20.558594 16.407219 20.558594 16.074219C20.558594 13.665219 21.156813 11.834891 22.007812 10.462891C20.510813 7.5048906 18.854 5 18 5C17 5 15.826 7 15 7C14.174 7 13 5 12 5 z M 27 9C27 9 22.558594 9.8602187 22.558594 16.074219C22.558594 16.074219 27 14.81 27 9 z M 4.8027344 16.638672C3.8647344 17.247672 2.62 18.322 2 20C2 20 4.948 24 15 24C25.052 24 28 20 28 20C27.38 18.322 26.135266 17.247672 25.197266 16.638672C24.211266 17.601672 21.144 20 15 20C8.856 20 5.7887344 17.601672 4.8027344 16.638672 z" fill="#C0CADC" />
</svg>