<svg xmlns="http://www.w3.org/2000/svg" xmlns:xlink="http://www.w3.org/1999/xlink" viewBox="0 0 24 24" fill="#C0CADC">
  <path d="M4 4C2.895 4 2 4.895 2 6L2 18C2 19.105 2.895 20 4 20L20 20C21.105 20 22 19.105 22 18L22 6C22 4.895 21.105 4 20 4L4 4 z M 10 8C10.733 8 11.411953 8.2106875 12.001953 8.5546875C12.592953 8.2116875 13.269 8 14 8C16.206 8 18 9.794 18 12C18 14.206 16.206 16 14 16C13.269 16 12.592953 15.789312 12.001953 15.445312C11.411953 15.789312 10.733 16 10 16C7.791 16 6 14.209 6 12C6 9.791 7.791 8 10 8 z M 14 10C13.821 10 13.651328 10.030219 13.486328 10.074219C13.804328 10.648219 14 11.298 14 12C14 12.702 13.804328 13.351781 13.486328 13.925781C13.651328 13.969781 13.821 14 14 14C15.103 14 16 13.103 16 12C16 10.897 15.103 10 14 10 z" fill="#C0CADC" />
</svg>