<svg xmlns="http://www.w3.org/2000/svg" xmlns:xlink="http://www.w3.org/1999/xlink" viewBox="0 0 24 24" fill="#C0CADC">
  <path d="M12 0C10.097656 0 8.914063 0.457031 8.8125 0.5L8.78125 0.53125L8.78125 0.5625L7.59375 3L9 6.3125L11 4C10.699219 3.699219 10.5 3.3125 10.5 3.3125L9.375 1.40625C9.695313 1.28125 10.574219 1 12 1C13.425781 1 14.304688 1.28125 14.625 1.40625L13.5 3.3125C13.5 3.3125 13.300781 3.699219 13 4L15 6.3125L16.40625 3L15.21875 0.53125C15.21875 0.53125 13.988281 0 12 0 Z M 7.09375 3.09375L5.8125 3.6875C5.210938 3.886719 4.800781 4.3125 4.5 4.8125L0.40625 11.09375C0.105469 11.492188 0 11.914063 0 12.3125L0 20L3 20L3 18L1 18L3 17L3 13.90625C3 13.605469 3.113281 13.292969 3.3125 13.09375L5 10.59375L5 23C5 23.550781 8.132813 24 12 24C15.867188 24 19 23.550781 19 23L19 10.59375L20.6875 13.09375C20.886719 13.292969 21 13.605469 21 13.90625L21 17L23 18L21 18L21 20L24 20L24 12.3125C24 11.914063 23.894531 11.492188 23.59375 11.09375L19.5 4.8125C19.199219 4.3125 18.6875 3.886719 18.1875 3.6875L16.90625 3.1875L15.1875 7.90625L12.6875 4L11.40625 4L8.90625 7.8125Z" fill="#C0CADC" />
</svg>