<svg xmlns="http://www.w3.org/2000/svg" xmlns:xlink="http://www.w3.org/1999/xlink" viewBox="0 0 128 128" fill="#C0CADC">
  <path d="M82.875 64.287109C80.75 64.224609 78.600391 64.95 76.900391 66.5L70 72.800781C69.9 72.900781 69.800781 72.999609 69.800781 73.099609C68.600781 73.999609 68.200391 75.600391 68.900391 76.900391C69.700391 78.400391 71.5 78.899609 73 78.099609C74.5 77.299609 76.399219 77.499219 77.699219 78.699219L85.300781 85.900391C88.600781 89.000391 93.000391 90.399609 97.400391 89.599609C101.80039 88.899609 105.59922 86.199219 107.69922 82.199219C108.09922 81.399219 108.89922 81.299219 109.19922 81.199219C109.49922 81.199219 110.30078 81.299609 110.80078 82.099609C111.10078 82.599609 111.30039 83.200781 111.40039 83.800781L113.40039 97.599609C113.80039 100.59961 113.19961 103.80039 111.59961 106.40039C111.29961 106.90039 111.19922 107.40039 111.19922 107.90039L94.199219 107.90039C73.199219 108.60039 63.499219 115.90039 39.199219 115.90039C25.899219 115.90039 18.300391 115.9 13.900391 115.5C13.400391 115 12.899609 114.50039 12.599609 113.90039C11.699609 112.50039 11.199219 110.80039 11.199219 108.90039L26.5 108.90039C31.3 108.90039 35.199219 104.99922 35.199219 100.19922C35.199219 99.599219 35.000781 99 34.800781 98.5C36.100781 98 37.399609 97.399219 38.599609 96.699219C39.899609 96.099219 40.399609 94.300781 39.599609 92.800781C38.799609 91.300781 37 90.799609 35.5 91.599609C32.5 93.199609 29.300391 94.299219 25.900391 94.699219L16.300781 95.900391C9.9007813 96.700391 5 102.30039 5 108.90039C5 111.90039 5.8007813 114.79922 7.3007812 117.19922C11.100781 123.29922 18.9 127 46 127C99.3 127 112.00078 127.00039 120.80078 120.40039C122.00078 119.50039 122.29922 117.99922 121.69922 116.69922L117.40039 108.09961C119.10039 104.59961 119.69922 100.70039 119.19922 96.900391L117.19922 83.099609C116.99922 81.799609 116.60039 80.500391 115.90039 79.400391C114.50039 76.900391 111.9 75.300391 109 75.400391C106.1 75.400391 103.49922 76.999609 102.19922 79.599609C100.99922 81.899609 98.800781 83.500391 96.300781 83.900391C93.700781 84.300391 91.200781 83.499219 89.300781 81.699219L81.699219 74.5C80.899219 73.7 79.999609 73.099219 79.099609 72.699219L81 70.900391C82 70.000391 83.6 70 84.5 71L85.800781 72.300781C87.000781 73.500781 88.9 73.500781 90 72.300781C91.2 71.100781 91.2 69.199609 90 68.099609L88.699219 66.800781C87.099219 65.200781 85 64.349609 82.875 64.287109 z M 62 74C59.1 74 56.500391 75.700391 55.400391 78.400391C54.300391 81.100391 54.900391 84.099219 56.900391 86.199219C57.500391 86.799219 58.3 87.099609 59 87.099609C59.7 87.099609 60.499609 86.799219 61.099609 86.199219C62.299609 84.999219 62.299609 83.1 61.099609 82C60.599609 81.5 60.700391 81.000781 60.900391 80.800781C61.100391 80.400781 61.3 80 62 80C63.7 80 65 78.7 65 77C65 75.3 63.7 74 62 74 z M 49 81C46.1 81 43.500391 82.700391 42.400391 85.400391C41.300391 88.100391 41.900391 91.099219 43.900391 93.199219C44.500391 93.799219 45.3 94.099609 46 94.099609C46.7 94.099609 47.499609 93.799219 48.099609 93.199219C49.299609 91.999219 49.299609 90.1 48.099609 89C47.599609 88.5 47.700391 88.000781 47.900391 87.800781C48.100391 87.400781 48.3 87 49 87C50.7 87 52 85.7 52 84C52 82.3 50.7 81 49 81 z" fill="#C0CADC" />
</svg>