<svg xmlns="http://www.w3.org/2000/svg" xmlns:xlink="http://www.w3.org/1999/xlink" viewBox="0 0 24 24" fill="#C0CADC">
  <path d="M6 2C4.898438 2 4 3 4 4.101563C4.101563 5.398438 4.101563 6.898438 4.101563 8C4.101563 9.199219 4.101563 10.398438 4 11C7 12.101563 7.800781 15.300781 7.800781 15.300781C7.800781 15.300781 6.101563 13.199219 3.800781 12.800781C2.601563 16.398438 3.101563 17.898438 6.699219 18.5C9.601563 19.5 15.101563 21.300781 16.300781 21.699219C18.5 22.398438 20.398438 21.898438 20.898438 20.800781C21.398438 19.699219 20.5 17.5 18.800781 16.699219C18.398438 16.800781 16.300781 17.5 15.398438 18.398438C16.101563 17.101563 17.699219 16.398438 18 16.199219C16.300781 15.398438 12.5 13.699219 11.898438 13.300781C11.300781 13 11.398438 7.199219 11.5 4C11.5 2.898438 10.601563 1.898438 9.5 1.898438L6 1.898438Z" fill="#C0CADC" />
</svg>