<svg xmlns="http://www.w3.org/2000/svg" xmlns:xlink="http://www.w3.org/1999/xlink" viewBox="0 0 48 48"><path d="M32.173828 4C30.716033 4 29.314237 4.5789197 28.283203 5.6113281L27.894531 6L22.173828 6C20.716033 6 19.314237 6.5789197 18.283203 7.6113281L1.6113281 24.285156C-0.5240078 26.420492 -0.5240078 29.927164 1.6113281 32.0625L11.9375 42.390625C14.072836 44.525961 17.581461 44.525961 19.716797 42.390625L21.826172 40.279297L21.9375 40.390625C24.072836 42.525961 27.581461 42.525961 29.716797 40.390625L46.390625 23.716797C47.421582 22.68584 48.001953 21.286238 48.001953 19.828125L48.001953 8.5C48.000464 6.0329887 45.967501 4 43.5 4L32.173828 4 z M 32.173828 7L43.5 7C44.346499 7 45.001442 7.6530113 45.001953 8.5L45.001953 19.828125C45.001953 20.490012 44.736621 21.12666 44.267578 21.595703L27.595703 38.267578C26.607039 39.256242 25.049211 39.256242 24.060547 38.267578L13.732422 27.941406C12.743758 26.952742 12.743758 25.394914 13.732422 24.40625L30.40625 7.7324219C30.875216 7.2628303 31.509624 7 32.173828 7 z M 22.173828 9L24.894531 9L11.611328 22.285156C9.4759923 24.420492 9.4759923 27.927164 11.611328 30.0625L19.705078 38.158203L17.595703 40.267578C16.607039 41.256242 15.049211 41.256242 14.060547 40.267578L3.7324219 29.941406C2.7437578 28.952742 2.7437578 27.394914 3.7324219 26.40625L20.40625 9.7324219C20.875216 9.2628303 21.509624 9 22.173828 9 z M 39 10 A 3 3 0 0 0 39 16 A 3 3 0 0 0 39 10 z"/></svg>