<svg xmlns="http://www.w3.org/2000/svg" xmlns:xlink="http://www.w3.org/1999/xlink" viewBox="0 0 30 30" fill="#C0CADC">
  <path d="M10.984375 1.9863281 A 1.0001 1.0001 0 0 0 10 3L10 7C10 7 8 9 8 10C8 11 9 13 9 14C9 15 8 23.026 8 25C8 25.526 8.448 26 9 26L15 26L21 26C21.552 26 22 25.526 22 25C22 23.026 21 15 21 14C21 13 22 11 22 10C22 9 20 7 20 7L20 3 A 1.0001 1.0001 0 0 0 18.984375 1.9863281 A 1.0001 1.0001 0 0 0 18 3L18 7.5546875C17.048695 7.7832145 15.932416 8 15 8C14.067584 8 12.951305 7.7832145 12 7.5546875L12 3 A 1.0001 1.0001 0 0 0 10.984375 1.9863281 z" fill="#C0CADC" />
</svg>