<svg xmlns="http://www.w3.org/2000/svg" xmlns:xlink="http://www.w3.org/1999/xlink" viewBox="0 0 50 50" fill="#C0CADC">
  <path d="M5 7C2.242188 7 0 9.242188 0 12L0 38C0 40.757813 2.242188 43 5 43L45 43C47.757813 43 50 40.757813 50 38L50 12C50 9.242188 47.757813 7 45 7 Z M 29.6875 19.40625C31.050781 19.40625 32.46875 19.96875 32.46875 19.96875L31.96875 22.40625C31.96875 22.40625 30.890625 21.6875 29.9375 21.6875C28.46875 21.6875 27.9375 22.167969 27.9375 22.8125C27.9375 24.074219 32.03125 24.296875 32.03125 27.125C32.03125 29.476563 29.113281 31.09375 27 31.09375C24.886719 31.09375 23.78125 30.46875 23.78125 30.46875L24.3125 28.09375C24.3125 28.09375 25.417969 28.75 27.125 28.75C28.828125 28.75 29.0625 28.023438 29.0625 27.71875C29.0625 25.914063 25 26.417969 25 22.90625C25 20.964844 26.585938 19.40625 29.6875 19.40625 Z M 16.46875 19.625L19.625 19.625L15.125 30.75L11.875 30.75L9.5 21.75C9.5 21.75 11.996094 23.023438 13.53125 26.46875C13.597656 26.886719 13.78125 27.5625 13.78125 27.5625 Z M 20.78125 19.625L23.78125 19.625L22 30.75L19.03125 30.75 Z M 36.8125 19.625L39.90625 19.625L42.1875 30.75L39.5 30.75L39.1875 29.15625L35.5 29.15625L34.90625 30.75L31.96875 30.75 Z M 6.25 19.65625L10.8125 19.65625C11.976563 19.65625 12.40625 20.75 12.40625 20.75L13.40625 25.8125C12.054688 21.453125 6.25 19.65625 6.25 19.65625 Z M 37.9375 22.84375L36.3125 27.03125L38.75 27.03125Z" fill="#C0CADC" />
</svg>