<svg xmlns="http://www.w3.org/2000/svg" xmlns:xlink="http://www.w3.org/1999/xlink" viewBox="0 0 24 24" fill="#C0CADC">
  <path d="M8 0L7.0449219 5.7265625C5.1927495 7.191828 4 9.4551537 4 12C4 14.544846 5.1927495 16.808172 7.0449219 18.273438L8 24L16 24L16.955078 18.273438C18.80725 16.808172 20 14.544846 20 12C20 9.4551537 18.80725 7.191828 16.955078 5.7265625L16 0L8 0 z M 12 6C15.314 6 18 8.686 18 12C18 15.314 15.314 18 12 18C8.686 18 6 15.314 6 12C6 8.686 8.686 6 12 6 z" fill="#C0CADC" />
</svg>